<svg xmlns="http://www.w3.org/2000/svg" viewBox="0 0 256 257">
  <defs><linearGradient id="a" x1="-.828%" x2="57.636%" y1="7.652%" y2="78.411%"><stop stop-color="#41D1FF" offset="0%"/><stop stop-color="#BD34FE" offset="100%"/></linearGradient><linearGradient id="b" x1="43.376%" x2="50.316%" y1="2.242%" y2="89.03%"><stop stop-color="#FFEA83" offset="0%"/><stop stop-color="#FFA800" offset="8.333%"/><stop stop-color="#FFFB7A" offset="100%"/></linearGradient></defs>
  <path fill="url(#a)" d="M255.153 37.938L134.897 252.976c-2.483 4.492-8.862 4.466-11.312-.048L.875 37.958C-1.742 33.298 2.828 27.7 7.91 29.056l120.217 32.387a6.51 6.51 0 003.382 0l116.651-32.32c5.07-1.405 9.653 4.163 7.046 8.82z"/>
  <path fill="url(#b)" d="M185.432.063l-94.38 27.12a3.254 3.254 0 00-2.263 2.526l-17.372 99.58a3.254 3.254 0 004.485 3.556l26.368-9.074c2.318-.796 4.734.968 4.31 3.392l-7.834 44.434c-.45 2.554 2.37 4.362 4.49 2.913l16.296-11.226a3.254 3.254 0 015.054 2.89L121.5 224.5c-.808 4.59 5.186 6.861 7.636 2.868l1.116-1.77 69.684-139.346a3.254 3.254 0 00-3.612-4.589l-27.12 6.772c-2.397.597-4.435-1.77-3.759-4.128L191.1 3.889c.79-2.766-1.74-5.312-4.67-4.53z"/>
</svg>
